# xmcd
# 
# Track frame offsets:
#     150
#     70885
#     90055
#     115745
#     133907
#     174892
#     223510
#     244160
# 
# Disc length: 4441
# 
# Revision: 5
# Processed by: cddbd v1.5.2PL0 Copyright (c) Steve Scherf et al.
# Submitted via: fre:ac v1.0.17
# 
DISCID=64115708
DTITLE=Blues Traveler - Live From the Fall [CD2]
DYEAR=1996
DGENRE=Rock
TTITLE0=Alone
TTITLE1=Freedom
TTITLE2=The Mountains Win Again
TTITLE3=What's for Breakfast
TTITLE4=Go Outside and Drive
TTITLE5=Low Rider
TTITLE6=Run-Around
TTITLE7=Sweet Talking Hippie
EXTD=YEAR: 1996
EXTT0=
EXTT1=
EXTT2=
EXTT3=
EXTT4=
EXTT5=
EXTT6=
EXTT7=
PLAYORDER=
